<svg width="32" height="32" viewBox="0 0 32 32" fill="none" xmlns="http://www.w3.org/2000/svg">
  <!-- Background circle with gradient -->
  <defs>
    <linearGradient id="bgGradient" x1="0%" y1="0%" x2="100%" y2="100%">
      <stop offset="0%" style="stop-color:#0891b2;stop-opacity:1" />
      <stop offset="100%" style="stop-color:#06b6d4;stop-opacity:1" />
    </linearGradient>
    <linearGradient id="iconGradient" x1="0%" y1="0%" x2="100%" y2="100%">
      <stop offset="0%" style="stop-color:#ffffff;stop-opacity:1" />
      <stop offset="100%" style="stop-color:#e5f7ff;stop-opacity:1" />
    </linearGradient>
  </defs>

  <!-- Background -->
  <circle cx="16" cy="16" r="14" fill="url(#bgGradient)" stroke="#0891b2" stroke-width="0.5"/>

  <!-- DeFi Pool/Liquidity Symbol -->
  <!-- Water drops representing liquidity -->
  <path d="M10 12c0-2 1.5-3.5 3.5-3.5s3.5 1.5 3.5 3.5c0 1.5-1 2.5-2 3l-1.5 1.5L12 16c-1-0.5-2-1.5-2-4z" fill="url(#iconGradient)" opacity="0.9"/>
  <path d="M15 18c0-1.5 1-2.5 2.5-2.5s2.5 1 2.5 2.5c0 1-0.7 1.8-1.5 2.2l-1 1-1-1c-0.8-0.4-1.5-1.2-1.5-2.2z" fill="url(#iconGradient)" opacity="0.7"/>

  <!-- Flow lines suggesting movement/trading -->
  <path d="M8 20c4-2 8 0 12-2" stroke="url(#iconGradient)" stroke-width="1.5" stroke-linecap="round" opacity="0.8" fill="none"/>
  <path d="M8 23c4-1 8-1 12 1" stroke="url(#iconGradient)" stroke-width="1" stroke-linecap="round" opacity="0.6" fill="none"/>

  <!-- Small dots for batching concept -->
  <circle cx="7" cy="8" r="1" fill="url(#iconGradient)" opacity="0.8"/>
  <circle cx="25" cy="8" r="1" fill="url(#iconGradient)" opacity="0.8"/>
  <circle cx="25" cy="24" r="1" fill="url(#iconGradient)" opacity="0.8"/>
</svg>